HIERARCHY
ROOT Hips
{
	OFFSET 0.0000 0.0000 0.0000
	CHANNELS 6 Xposition Yposition Zposition Zrotation Xrotation Yrotation
	JOINT Ab
	{
		OFFSET -0.0000 8.1305 -0.0000
		CHANNELS 3 Zrotation Xrotation Yrotation
		JOINT Chest
		{
			OFFSET -0.0000 26.2902 -0.0000
			CHANNELS 3 Zrotation Xrotation Yrotation
			JOINT Neck
			{
				OFFSET -0.0000 26.2902 0.0000
				CHANNELS 3 Zrotation Xrotation Yrotation
				JOINT Head
				{
					OFFSET -0.0000 10.8167 0.0000
					CHANNELS 3 Zrotation Xrotation Yrotation
					End Site
					{
						OFFSET -0.0000 16.7167 0.0000
					}
				}
			}
			JOINT LeftCollar
			{
				OFFSET -0.0000 26.2902 0.0000
				CHANNELS 3 Zrotation Xrotation Yrotation
				JOINT LeftShoulder
				{
					OFFSET 19.6667 -0.0000 0.0000
					CHANNELS 3 Zrotation Xrotation Yrotation
					JOINT LeftElbow
					{
						OFFSET 27.2190 0.0000 0.0000
						CHANNELS 3 Zrotation Xrotation Yrotation
						JOINT LeftWrist
						{
							OFFSET 30.7431 0.0000 0.0000
							CHANNELS 3 Zrotation Xrotation Yrotation
							End Site
							{
								OFFSET 0.0000 -14.7500 0.0000
							}
						}
					}
				}
			}
			JOINT RightCollar
			{
				OFFSET -0.0000 26.2902 0.0000
				CHANNELS 3 Zrotation Xrotation Yrotation
				JOINT RightShoulder
				{
					OFFSET -19.6667 0.0000 0.0000
					CHANNELS 3 Zrotation Xrotation Yrotation
					JOINT RightElbow
					{
						OFFSET -27.2190 0.0000 0.0000
						CHANNELS 3 Zrotation Xrotation Yrotation
						JOINT RightWrist
						{
							OFFSET -30.7431 0.0000 0.0000
							CHANNELS 3 Zrotation Xrotation Yrotation
							End Site
							{
								OFFSET -0.0000 -14.7500 0.0000
							}
						}
					}
				}
			}
		}
	}
	JOINT LeftHip
	{
		OFFSET 11.8000 0.0000 0.0000
		CHANNELS 3 Zrotation Xrotation Yrotation
		JOINT LeftKnee
		{
			OFFSET -0.0000 -39.7832 0.0000
			CHANNELS 3 Zrotation Xrotation Yrotation
			JOINT LeftAnkle
			{
				OFFSET -0.0000 -41.7317 0.0000
				CHANNELS 3 Zrotation Xrotation Yrotation
				End Site
				{
					OFFSET -0.0000 -4.9167 16.7167
				}
			}
		}
	}
	JOINT RightHip
	{
		OFFSET -11.8000 0.0000 0.0000
		CHANNELS 3 Zrotation Xrotation Yrotation
		JOINT RightKnee
		{
			OFFSET -0.0000 -39.7832 0.0000
			CHANNELS 3 Zrotation Xrotation Yrotation
			JOINT RightAnkle
			{
				OFFSET -0.0000 -41.7317 0.0000
				CHANNELS 3 Zrotation Xrotation Yrotation
				End Site
				{
					OFFSET -0.0000 -4.9167 16.7167
				}
			}
		}
	}
}
MOTION
Frames: 8
Frame Time: 0.010000
-18.8317 96.8662 174.7614 358.0310 357.2494 177.2968 357.7243 348.1602 359.7092 2.6045 10.8614 359.6955 358.1605 357.0093 1.5657 357.2024 3.0775 1.6909 339.8412 357.2914 15.2314 320.7302 60.0526 336.6510 8.9728 357.2872 326.4067 91.5957 355.9548 345.1284 26.9940 355.8159 342.7705 46.8580 44.8252 1.7091 339.2322 354.0627 31.7929 269.1485 354.0003 7.4256 355.7342 2.8232 2.2209 358.3528 6.9986 4.2953 356.2428 351.8486 14.4655 357.9223 5.5734 10.9361 6.3393 6.9897 8.9705 349.8193 342.5722 311.9665 
-18.8499 96.8625 174.7553 358.0276 357.2083 177.2873 357.7185 348.1356 359.7058 2.6112 10.8776 359.6944 358.1742 356.9539 1.5677 357.1777 3.1283 1.6941 339.8455 357.2860 15.2377 320.7717 60.0483 336.5889 9.0150 357.2835 326.4103 91.6165 355.9802 345.2021 26.9810 355.8548 342.7524 46.8351 44.8268 1.7931 339.2397 354.0254 31.7842 269.1799 353.9948 7.4795 355.7248 2.7802 2.2207 358.3433 7.0101 4.2905 356.2121 351.8391 14.4728 357.9072 5.5197 10.9329 6.3410 7.0210 8.9941 349.9861 342.2739 311.8650 
-18.8711 96.8614 174.7402 358.0275 357.2013 177.2749 357.7324 348.1382 359.7033 2.5959 10.8948 359.6887 358.1797 356.9171 1.5785 357.1770 3.1659 1.7059 339.8654 357.2779 15.2075 320.6787 60.0238 336.6891 9.0323 357.2429 326.3238 92.2998 356.0215 345.5606 26.9478 355.8268 342.7452 46.8797 44.8865 1.8231 339.1348 354.0021 31.7406 269.2369 353.9558 7.4502 355.7095 2.7789 2.2133 358.3421 7.0241 4.2852 356.3527 351.8251 14.4907 357.8937 5.5076 10.9172 6.3437 7.0400 8.9660 349.9974 342.2510 311.8998 
-18.8948 96.8594 174.7231 358.0272 357.1879 177.2595 357.7571 348.1191 359.7003 2.5690 10.9431 359.6835 358.2002 356.8470 1.5917 357.1496 3.2255 1.7204 339.8812 357.2953 15.2111 320.6898 59.9975 336.6707 8.9979 357.2504 326.2879 92.3322 356.0355 345.5720 26.9334 355.8538 342.7405 46.8872 44.8995 1.8524 339.1692 354.0069 31.7576 269.2033 353.9986 7.3962 355.6909 2.7855 2.1902 358.3407 7.0096 4.3031 356.3307 351.8167 14.5154 357.8763 5.5027 10.9329 6.3422 7.0427 8.9796 349.8671 342.4900 311.9802 
-18.9186 96.8575 174.7047 358.0191 357.1644 177.2403 357.7806 348.0912 359.6899 2.5336 10.9869 359.6737 358.2010 356.7603 1.6083 357.1424 3.3115 1.7412 339.9177 357.2806 15.2447 320.7275 60.0343 336.5747 9.0866 357.2316 326.3199 92.1796 356.0297 345.6003 26.9216 355.8348 342.7531 46.9111 44.9154 1.8686 339.1088 353.9982 31.7468 269.2178 353.9890 7.4148 355.6648 2.7800 2.1614 358.3383 6.9957 4.3566 356.3700 351.8131 14.4924 357.8479 5.4762 10.9376 6.3532 7.0623 8.9564 349.9875 342.2612 311.9319 
-18.9390 96.8562 174.6883 358.0129 357.1476 177.2266 357.7722 348.0710 359.6849 2.5376 11.0350 359.6747 358.2196 356.6970 1.6191 357.1202 3.3664 1.7564 339.9131 357.3067 15.2462 320.7670 59.9850 336.5396 9.0026 357.2562 326.2943 92.1522 356.0450 345.5411 26.9042 355.8539 342.7482 46.9020 44.9353 1.9177 339.1302 354.0025 31.7406 269.2149 354.0039 7.4160 355.6468 2.7787 2.1146 358.3286 6.9870 4.3866 356.3380 351.7985 14.5210 357.8303 5.4626 10.9292 6.3456 7.0714 8.9654 350.0230 342.2111 311.9279 
-18.9624 96.8553 174.6720 358.0029 357.1262 177.2021 357.7908 348.0543 359.6808 2.5103 11.0695 359.6670 358.2131 356.6267 1.6345 357.1195 3.4386 1.7735 339.9289 357.2820 15.2852 320.8718 60.0328 336.3929 9.0846 357.2349 326.3345 92.0738 356.0308 345.5821 26.9100 355.8382 342.7479 46.8597 44.9679 1.9714 339.1023 354.0042 31.7320 269.2395 354.0010 7.4057 355.6220 2.7809 2.0693 358.3156 6.9610 4.4439 356.2785 351.7933 14.5386 357.7963 5.4379 10.9495 6.3631 7.0861 8.9711 350.0214 342.1960 311.9232 
-18.9869 96.8544 174.6541 357.9976 357.1086 177.1823 357.7190 348.1665 359.7288 2.6320 10.8575 359.7165 358.1921 356.7735 1.6255 357.1035 3.3945 1.7614 339.8567 357.2756 15.2651 320.7815 60.0937 336.5491 9.0119 357.2661 326.3315 92.1622 356.0465 345.6206 26.8582 355.8308 342.6884 46.8901 45.0160 1.8990 339.0694 354.0145 31.7058 269.2621 354.0134 7.3800 355.6021 2.8098 1.9157 358.2839 6.8889 4.6073 356.4142 351.8254 14.5452 357.7718 5.4241 10.9445 6.3648 7.0947 8.9638 350.0507 342.1557 311.9429 
